<mxfile host="app.diagrams.net" modified="2023-10-23T12:12:29.345Z" agent="Mozilla/5.0 (Windows NT 10.0; Win64; x64) AppleWebKit/537.36 (KHTML, like Gecko) Chrome/93.0.4577.63 Safari/537.36 Edg/93.0.961.47" etag="ocV0B9yTnNe5IjPxVxVU" version="22.0.6" type="github">
  <diagram name="第 1 页" id="4otb5ZtHdy3Oi0GnkD3j">
    <mxGraphModel dx="1290" dy="580" grid="1" gridSize="10" guides="1" tooltips="1" connect="1" arrows="1" fold="1" page="1" pageScale="1" pageWidth="827" pageHeight="1169" math="0" shadow="0">
      <root>
        <mxCell id="0" />
        <mxCell id="1" parent="0" />
        <mxCell id="AJWcRZaH9yBL8E0OK9tO-3" style="edgeStyle=orthogonalEdgeStyle;rounded=0;orthogonalLoop=1;jettySize=auto;html=1;" edge="1" parent="1" source="AJWcRZaH9yBL8E0OK9tO-1">
          <mxGeometry relative="1" as="geometry">
            <mxPoint x="220" y="220" as="targetPoint" />
          </mxGeometry>
        </mxCell>
        <mxCell id="AJWcRZaH9yBL8E0OK9tO-1" value="开始" style="rounded=1;whiteSpace=wrap;html=1;" vertex="1" parent="1">
          <mxGeometry x="30" y="190" width="120" height="60" as="geometry" />
        </mxCell>
        <mxCell id="AJWcRZaH9yBL8E0OK9tO-7" value="" style="edgeStyle=orthogonalEdgeStyle;rounded=0;orthogonalLoop=1;jettySize=auto;html=1;" edge="1" parent="1" source="AJWcRZaH9yBL8E0OK9tO-4" target="AJWcRZaH9yBL8E0OK9tO-6">
          <mxGeometry relative="1" as="geometry" />
        </mxCell>
        <mxCell id="AJWcRZaH9yBL8E0OK9tO-4" value="绘制草图" style="rounded=0;whiteSpace=wrap;html=1;" vertex="1" parent="1">
          <mxGeometry x="220" y="190" width="120" height="60" as="geometry" />
        </mxCell>
        <mxCell id="AJWcRZaH9yBL8E0OK9tO-11" value="" style="edgeStyle=orthogonalEdgeStyle;rounded=0;orthogonalLoop=1;jettySize=auto;html=1;" edge="1" parent="1" source="AJWcRZaH9yBL8E0OK9tO-6" target="AJWcRZaH9yBL8E0OK9tO-10">
          <mxGeometry relative="1" as="geometry" />
        </mxCell>
        <mxCell id="AJWcRZaH9yBL8E0OK9tO-6" value="添加特征进行零件体设计" style="whiteSpace=wrap;html=1;rounded=0;" vertex="1" parent="1">
          <mxGeometry x="420" y="190" width="120" height="60" as="geometry" />
        </mxCell>
        <mxCell id="AJWcRZaH9yBL8E0OK9tO-17" value="" style="edgeStyle=orthogonalEdgeStyle;rounded=0;orthogonalLoop=1;jettySize=auto;html=1;" edge="1" parent="1" source="AJWcRZaH9yBL8E0OK9tO-10" target="AJWcRZaH9yBL8E0OK9tO-16">
          <mxGeometry relative="1" as="geometry" />
        </mxCell>
        <mxCell id="AJWcRZaH9yBL8E0OK9tO-19" value="否" style="edgeLabel;html=1;align=center;verticalAlign=middle;resizable=0;points=[];" vertex="1" connectable="0" parent="AJWcRZaH9yBL8E0OK9tO-17">
          <mxGeometry x="0.04" y="4" relative="1" as="geometry">
            <mxPoint as="offset" />
          </mxGeometry>
        </mxCell>
        <mxCell id="AJWcRZaH9yBL8E0OK9tO-26" style="edgeStyle=orthogonalEdgeStyle;rounded=0;orthogonalLoop=1;jettySize=auto;html=1;" edge="1" parent="1" source="AJWcRZaH9yBL8E0OK9tO-10" target="AJWcRZaH9yBL8E0OK9tO-12">
          <mxGeometry relative="1" as="geometry" />
        </mxCell>
        <mxCell id="AJWcRZaH9yBL8E0OK9tO-28" value="是" style="edgeLabel;html=1;align=center;verticalAlign=middle;resizable=0;points=[];" vertex="1" connectable="0" parent="AJWcRZaH9yBL8E0OK9tO-26">
          <mxGeometry x="-0.4667" y="2" relative="1" as="geometry">
            <mxPoint as="offset" />
          </mxGeometry>
        </mxCell>
        <mxCell id="AJWcRZaH9yBL8E0OK9tO-10" value="零件设计完成" style="rhombus;whiteSpace=wrap;html=1;rounded=0;" vertex="1" parent="1">
          <mxGeometry x="640" y="180" width="80" height="80" as="geometry" />
        </mxCell>
        <mxCell id="AJWcRZaH9yBL8E0OK9tO-27" style="edgeStyle=orthogonalEdgeStyle;rounded=0;orthogonalLoop=1;jettySize=auto;html=1;entryX=0.5;entryY=0;entryDx=0;entryDy=0;" edge="1" parent="1" source="AJWcRZaH9yBL8E0OK9tO-12" target="AJWcRZaH9yBL8E0OK9tO-14">
          <mxGeometry relative="1" as="geometry" />
        </mxCell>
        <mxCell id="AJWcRZaH9yBL8E0OK9tO-12" value="模型文件导出" style="whiteSpace=wrap;html=1;rounded=0;" vertex="1" parent="1">
          <mxGeometry x="620" y="320" width="120" height="60" as="geometry" />
        </mxCell>
        <mxCell id="AJWcRZaH9yBL8E0OK9tO-14" value="结束" style="rounded=1;whiteSpace=wrap;html=1;" vertex="1" parent="1">
          <mxGeometry x="620" y="440" width="120" height="60" as="geometry" />
        </mxCell>
        <mxCell id="AJWcRZaH9yBL8E0OK9tO-20" style="edgeStyle=orthogonalEdgeStyle;rounded=0;orthogonalLoop=1;jettySize=auto;html=1;entryX=0.5;entryY=0;entryDx=0;entryDy=0;" edge="1" parent="1" source="AJWcRZaH9yBL8E0OK9tO-16" target="AJWcRZaH9yBL8E0OK9tO-4">
          <mxGeometry relative="1" as="geometry" />
        </mxCell>
        <mxCell id="AJWcRZaH9yBL8E0OK9tO-21" value="是" style="edgeLabel;html=1;align=center;verticalAlign=middle;resizable=0;points=[];" vertex="1" connectable="0" parent="AJWcRZaH9yBL8E0OK9tO-20">
          <mxGeometry x="-0.8873" y="1" relative="1" as="geometry">
            <mxPoint as="offset" />
          </mxGeometry>
        </mxCell>
        <mxCell id="AJWcRZaH9yBL8E0OK9tO-23" value="" style="edgeStyle=orthogonalEdgeStyle;rounded=0;orthogonalLoop=1;jettySize=auto;html=1;" edge="1" parent="1" source="AJWcRZaH9yBL8E0OK9tO-16" target="AJWcRZaH9yBL8E0OK9tO-22">
          <mxGeometry relative="1" as="geometry" />
        </mxCell>
        <mxCell id="AJWcRZaH9yBL8E0OK9tO-24" value="否" style="edgeLabel;html=1;align=center;verticalAlign=middle;resizable=0;points=[];" vertex="1" connectable="0" parent="AJWcRZaH9yBL8E0OK9tO-23">
          <mxGeometry x="-0.1867" relative="1" as="geometry">
            <mxPoint as="offset" />
          </mxGeometry>
        </mxCell>
        <mxCell id="AJWcRZaH9yBL8E0OK9tO-16" value="需要添加新特征" style="rhombus;whiteSpace=wrap;html=1;rounded=0;" vertex="1" parent="1">
          <mxGeometry x="635" y="10" width="90" height="90" as="geometry" />
        </mxCell>
        <mxCell id="AJWcRZaH9yBL8E0OK9tO-25" style="edgeStyle=orthogonalEdgeStyle;rounded=0;orthogonalLoop=1;jettySize=auto;html=1;entryX=1;entryY=0.5;entryDx=0;entryDy=0;" edge="1" parent="1" source="AJWcRZaH9yBL8E0OK9tO-22" target="AJWcRZaH9yBL8E0OK9tO-10">
          <mxGeometry relative="1" as="geometry">
            <Array as="points">
              <mxPoint x="840" y="220" />
            </Array>
          </mxGeometry>
        </mxCell>
        <mxCell id="AJWcRZaH9yBL8E0OK9tO-22" value="零件编辑" style="whiteSpace=wrap;html=1;rounded=0;" vertex="1" parent="1">
          <mxGeometry x="780" y="25" width="120" height="60" as="geometry" />
        </mxCell>
      </root>
    </mxGraphModel>
  </diagram>
</mxfile>
